<?xml version="1.0" encoding="UTF-8" standalone="no"?><!DOCTYPE svg PUBLIC "-//W3C//DTD SVG 1.1//EN" "http://www.w3.org/Graphics/SVG/1.1/DTD/svg11.dtd"><svg width="100%" height="100%" viewBox="0 0 966 98" version="1.1" xmlns="http://www.w3.org/2000/svg" xmlns:xlink="http://www.w3.org/1999/xlink" xml:space="preserve" xmlns:serif="http://www.serif.com/" style="fill-rule:evenodd;clip-rule:evenodd;stroke-linejoin:round;stroke-miterlimit:2;"><path d="M41.884,1.384c5.385,0 10.26,1.203 14.623,3.609c4.364,2.406 7.776,5.714 10.237,9.925c2.46,4.21 3.69,8.953 3.69,14.228c0,5.275 -1.23,10.018 -3.69,14.228c-2.461,4.211 -5.873,7.519 -10.237,9.925c-4.363,2.407 -9.238,3.61 -14.623,3.61l-27.576,0l0,39.7l-13.648,0l0,-95.225l41.224,0Zm-27.576,12.354l0,30.816l26.323,0c4.363,0 8.147,-1.504 11.35,-4.511c3.203,-3.008 4.805,-6.64 4.805,-10.897c0,-4.349 -1.602,-8.005 -4.805,-10.966c-3.203,-2.961 -6.987,-4.442 -11.35,-4.442l-26.323,0Z" style="fill:#ffd600;fill-rule:nonzero;"/><path d="M170.012,1.384c8.449,0 15.39,1.989 20.821,5.969c5.432,3.979 8.148,9.439 8.148,16.379c0,6.201 -1.648,11.476 -4.944,15.825c-3.297,4.349 -7.359,6.987 -12.187,7.912l0,0.694c4.457,1.759 8.124,4.813 11.003,9.162c2.878,4.349 4.317,9.578 4.317,15.686c0,5.09 0.279,8.93 0.836,11.521c0.557,2.591 1.3,4.396 2.228,5.414c0.929,1.018 2.275,1.804 4.039,2.36l0,3.886c-2.043,0.833 -4.225,1.25 -6.546,1.25c-4.456,0 -7.938,-1.319 -10.445,-3.956c-2.507,-2.638 -3.76,-7.612 -3.76,-14.923c0,-7.496 -1.556,-13.349 -4.666,-17.559c-3.11,-4.211 -6.987,-6.316 -11.629,-6.316l-24.233,0l0,41.921l-13.648,0l0,-95.225l40.666,0Zm-27.018,12.354l0,28.595l27.158,0c3.992,0 7.52,-1.342 10.584,-4.025c3.064,-2.684 4.596,-6.016 4.596,-9.995l0,-0.555c0,-4.072 -1.393,-7.427 -4.178,-10.064c-2.785,-2.637 -6.453,-3.956 -11.002,-3.956l-27.158,0Z" style="fill:#ffd600;fill-rule:nonzero;"/><path d="M299.673,-0.005c7.892,0 14.809,1.713 20.751,5.137c5.942,3.424 10.561,8.351 13.858,14.783c3.296,6.432 4.944,14.043 4.944,22.835l0,12.493c0,8.791 -1.648,16.403 -4.944,22.834c-3.297,6.432 -7.916,11.36 -13.858,14.784c-5.942,3.424 -12.859,5.136 -20.751,5.136c-7.892,0 -14.809,-1.712 -20.751,-5.136c-5.943,-3.424 -10.562,-8.352 -13.858,-14.784c-3.296,-6.431 -4.944,-14.043 -4.944,-22.834l0,-12.493c0,-8.792 1.648,-16.403 4.944,-22.835c3.296,-6.432 7.915,-11.359 13.858,-14.783c5.942,-3.424 12.859,-5.137 20.751,-5.137Zm0,12.355c-8.171,0 -14.531,2.591 -19.08,7.773c-4.55,5.183 -6.824,12.725 -6.824,22.627l0,12.493c0,9.902 2.205,17.444 6.615,22.626c4.41,5.183 10.84,7.774 19.289,7.774c8.17,0 14.53,-2.568 19.08,-7.704c4.549,-5.136 6.824,-12.702 6.824,-22.696l0,-12.493c0,-9.902 -2.205,-17.444 -6.615,-22.627c-4.41,-5.182 -10.84,-7.773 -19.289,-7.773Z" style="fill:#ffd600;fill-rule:nonzero;"/><path d="M450.642,70.651c0,8.421 -2.6,15.084 -7.799,19.989c-5.2,4.905 -12.024,7.357 -20.473,7.357l-1.254,0c-8.449,0 -15.157,-2.36 -20.124,-7.079c-4.967,-4.72 -7.451,-11.476 -7.451,-20.267l0,-2.915l13.648,0l0,3.748c0,4.164 1.416,7.565 4.248,10.203c2.832,2.637 6.43,3.956 10.794,3.956c4.363,0 7.915,-1.296 10.654,-3.887c2.739,-2.591 4.108,-6.015 4.108,-10.272l0,-70.1l13.649,0l0,69.267Z" style="fill:#ffd600;fill-rule:nonzero;"/><path d="M580.024,1.384l-1.811,12.354l-47.212,0l0,28.04l42.755,0l0,12.354l-42.755,0l0,30.123l48.048,0l1.949,12.354l-63.646,0l0,-95.225l62.672,0Z" style="fill:#ffd600;fill-rule:nonzero;"/><path d="M676.816,-0.005c7.428,0 13.927,1.527 19.498,4.581c5.571,3.054 9.865,7.427 12.883,13.118c3.017,5.691 4.526,12.424 4.526,20.197l-13.649,0c0,-8.051 -1.996,-14.321 -5.988,-18.809c-3.993,-4.488 -9.749,-6.732 -17.27,-6.732c-8.356,0 -14.716,2.568 -19.08,7.704c-4.363,5.136 -6.545,12.701 -6.545,22.696l0,12.493c0,9.902 2.135,17.444 6.406,22.626c4.271,5.183 10.585,7.774 18.941,7.774c7.799,0 13.764,-2.221 17.896,-6.663c4.132,-4.442 6.197,-10.643 6.197,-18.601l13.092,0c0,7.681 -1.509,14.344 -4.526,19.989c-3.018,5.645 -7.312,9.994 -12.883,13.048c-5.571,3.054 -12.07,4.581 -19.498,4.581c-12.348,0 -21.981,-3.771 -28.898,-11.313c-6.917,-7.542 -10.376,-18.023 -10.376,-31.441l0,-12.493c0,-13.326 3.459,-23.783 10.376,-31.372c6.917,-7.588 16.55,-11.383 28.898,-11.383Z" style="fill:#ffd600;fill-rule:nonzero;"/><path d="M840.041,1.384l0,12.354l-29.943,0l0,82.871l-13.649,0l0,-82.871l-29.943,0l0,-12.354l73.535,0Z" style="fill:#ffd600;fill-rule:nonzero;"/><path d="M929.034,-0.005c10.492,0 18.732,2.314 24.721,6.941c5.989,4.627 8.983,11.198 8.983,19.711l0,1.666l-13.649,0l0,-2.082c0,-4.442 -1.81,-7.866 -5.431,-10.272c-3.621,-2.406 -8.403,-3.609 -14.345,-3.609c-6.592,0 -11.722,1.087 -15.389,3.262c-3.668,2.175 -5.502,5.298 -5.502,9.37c0,3.054 1.045,5.552 3.134,7.496c2.089,1.943 4.689,3.47 7.799,4.58c3.111,1.111 7.405,2.36 12.883,3.748c7.056,1.851 12.766,3.656 17.13,5.414c4.364,1.758 8.101,4.396 11.211,7.912c3.11,3.517 4.666,8.19 4.666,14.02c0,10.365 -3.18,17.93 -9.54,22.696c-6.36,4.766 -15.297,7.149 -26.81,7.149c-11.513,0 -20.449,-2.429 -26.809,-7.288c-6.36,-4.858 -9.54,-11.914 -9.54,-21.169l0.139,-2.776l13.648,0l-0.139,2.915c0,5.368 2.02,9.37 6.058,12.008c4.039,2.637 9.633,3.956 16.782,3.956c6.964,0 12.465,-1.273 16.504,-3.818c4.039,-2.545 6.058,-6.038 6.058,-10.48c0,-3.517 -1.091,-6.362 -3.273,-8.537c-2.182,-2.175 -4.921,-3.864 -8.217,-5.067c-3.296,-1.203 -7.775,-2.544 -13.439,-4.025c-6.964,-1.851 -12.534,-3.609 -16.713,-5.275c-4.178,-1.666 -7.752,-4.234 -10.723,-7.704c-2.971,-3.47 -4.457,-8.028 -4.457,-13.673c0,-9.162 3.11,-15.964 9.331,-20.406c6.221,-4.442 14.531,-6.663 24.929,-6.663Z" style="fill:#ffd600;fill-rule:nonzero;"/></svg>