<?xml version="1.0" encoding="UTF-8" standalone="no"?><!DOCTYPE svg PUBLIC "-//W3C//DTD SVG 1.1//EN" "http://www.w3.org/Graphics/SVG/1.1/DTD/svg11.dtd"><svg width="100%" height="100%" viewBox="0 0 52 52" version="1.1" xmlns="http://www.w3.org/2000/svg" xmlns:xlink="http://www.w3.org/1999/xlink" xml:space="preserve" xmlns:serif="http://www.serif.com/" style="fill-rule:evenodd;clip-rule:evenodd;stroke-linecap:round;stroke-linejoin:round;stroke-miterlimit:1.5;"><g><g id="Logo"><path d="M51.466,6.057c0,-2.751 -2.23,-4.98 -4.98,-4.98c-9.577,0 -30.463,0 -40.041,0c-2.75,0 -4.979,2.229 -4.979,4.98c0,9.577 0,30.463 0,40.04c0,2.751 2.229,4.98 4.979,4.98c9.578,0 30.464,0 40.041,0c2.75,0 4.98,-2.229 4.98,-4.98c0,-9.577 0,-30.463 0,-40.04Z" style="fill:none;stroke:#fff;stroke-width:1px;"/><path d="M11.466,1.077l0,50" style="fill:none;stroke:#fff;stroke-width:0.45px;"/><path d="M51.466,11.077l-50,0" style="fill:none;stroke:#fff;stroke-width:0.45px;"/><path d="M21.466,1.077l0,50" style="fill:none;stroke:#fff;stroke-width:0.45px;"/><path d="M51.466,21.077l-50,0" style="fill:none;stroke:#fff;stroke-width:0.45px;"/><path d="M31.466,1.077l0,50" style="fill:none;stroke:#fff;stroke-width:0.45px;"/><path d="M51.466,31.077l-50,0" style="fill:none;stroke:#fff;stroke-width:0.45px;"/><path d="M41.466,1.077l0,50" style="fill:none;stroke:#fff;stroke-width:0.45px;"/><path d="M51.466,41.077l-50,0" style="fill:none;stroke:#fff;stroke-width:0.45px;"/></g><text x="7.915px" y="28.847px" style="font-family:'TTNorms-ExtraBold', 'TT Norms';font-weight:800;font-size:24.623px;fill:#ffd600;">J</text><text x="22.88px" y="39.847px" style="font-family:'TTNorms-ExtraBold', 'TT Norms';font-weight:800;font-size:24.623px;fill:#ffd600;">X</text></g></svg>