<?xml version="1.0" encoding="UTF-8" standalone="no"?><!DOCTYPE svg PUBLIC "-//W3C//DTD SVG 1.1//EN" "http://www.w3.org/Graphics/SVG/1.1/DTD/svg11.dtd"><svg width="100%" height="100%" viewBox="0 0 174 58" version="1.1" xmlns="http://www.w3.org/2000/svg" xmlns:xlink="http://www.w3.org/1999/xlink" xml:space="preserve" style="fill-rule:evenodd;clip-rule:evenodd;stroke-linejoin:round;stroke-miterlimit:1.41421;"><g><path d="M6.767,26.647c0.069,-0.11 0.112,-0.213 0.127,-0.306c0.025,-0.174 -0.054,-0.384 -0.22,-0.589c-0.409,-0.511 -1.239,-0.89 -1.815,-0.835c-0.916,0.088 -1.765,0.873 -1.906,1.763c-0.139,0.89 0.491,1.563 1.413,1.489c0.76,-0.058 1.998,-0.878 2.401,-1.522Z" style="fill:#363639;fill-rule:nonzero;"/><path d="M15.916,25.419c0.066,-0.528 -0.544,-1.005 -1.893,-1.49c-4.053,-1.457 -6.443,-5.086 -7.236,-10.613c0,0 -0.003,-0.027 -0.006,-0.053c-0.017,-0.016 -0.033,-0.03 -0.033,-0.03c-0.19,-0.175 -0.436,-0.35 -0.682,-0.139c-0.531,0.447 -0.189,2.372 1.082,7.773c0,0 0.496,2.128 0.496,2.13c0.274,1.211 0.334,2.174 0.2,3.123c-0.137,0.954 -0.485,1.97 -1.129,3.295l-1.175,2.386c-3.137,6.34 -4.181,8.683 -3.751,9.114c0.203,0.202 0.539,-0.056 0.807,-0.303c0,0 0.025,-0.022 0.048,-0.043c0.014,-0.03 0.025,-0.061 0.025,-0.061c0.844,-2.052 1.772,-3.882 2.786,-5.497c2.244,-3.572 4.951,-6.152 8.145,-7.72c1.193,-0.586 1.907,-1.083 2.186,-1.525c0.074,-0.12 0.118,-0.232 0.13,-0.347Z" style="fill:#363639;fill-rule:nonzero;"/><path d="M43.857,14.401c0,0 0.039,0.005 0.075,0.007c0.035,-0.017 0.072,-0.031 0.072,-0.031c0.312,-0.137 0.66,-0.311 0.804,-0.541c0.049,-0.081 0.079,-0.166 0.071,-0.26c-0.059,-0.777 -2.9,-0.87 -10.451,-0.744c0,0 -2.708,0.037 -2.713,0.038c-1.467,0.009 -2.492,-0.149 -3.329,-0.511c-0.825,-0.362 -1.537,-0.95 -2.31,-1.907c0,0 -1.35,-1.693 -1.35,-1.694c-3.376,-4.282 -4.63,-5.66 -5.262,-5.272c-0.077,0.046 -0.13,0.104 -0.172,0.171c-0.121,0.194 -0.121,0.457 -0.104,0.682c0,0 0.003,0.03 0.005,0.056c0.016,0.018 0.033,0.035 0.033,0.035c3.706,3.758 5.073,8.358 3.838,13.55c-0.398,1.688 -0.387,2.579 0.039,2.797c0.427,0.221 1.291,-0.234 2.729,-1.435c4.553,-3.812 10.494,-5.509 18.025,-4.941Z" style="fill:#363639;fill-rule:nonzero;"/><path d="M31.683,6.857c-0.809,-0.312 -1.986,0.273 -2.635,1.307c-0.62,0.986 -0.712,2.883 -0.146,3.123c0.571,0.246 2.444,-0.936 3.074,-1.943c0.664,-1.053 0.527,-2.17 -0.293,-2.487Z" style="fill:#363639;fill-rule:nonzero;"/><path d="M21.281,42.55c0,0 1.885,-2.336 1.887,-2.336c1.056,-1.297 1.961,-2.135 2.935,-2.721c0.981,-0.584 2.122,-0.964 3.715,-1.236l2.927,-0.482c8.117,-1.303 11.167,-1.947 11.292,-2.838c0.059,-0.412 -0.427,-0.607 -0.856,-0.732c0,0 -0.039,-0.009 -0.076,-0.019c-0.041,0.007 -0.08,0.017 -0.08,0.017c-8.088,2.065 -14.177,1.271 -18.281,-2.086c-1.258,-1.03 -2.067,-1.355 -2.561,-1.046c-0.101,0.068 -0.191,0.16 -0.269,0.284c-0.292,0.465 -0.409,1.357 -0.364,2.758c0.12,3.882 -1.07,7.868 -3.551,11.819c-1.118,1.786 -2.495,3.545 -4.114,5.272c0,0 -0.026,0.03 -0.047,0.055c-0.013,0.033 -0.023,0.069 -0.023,0.069c-0.12,0.408 -0.217,0.901 0.072,1.078c0.625,0.382 2.469,-1.712 7.394,-7.856Z" style="fill:#363639;fill-rule:nonzero;"/><path d="M26.291,42.238c0.277,0.611 0.766,1.064 1.345,1.238c0.464,0.14 0.952,0.088 1.37,-0.152c0.418,-0.241 0.74,-0.651 0.907,-1.16c0.211,-0.632 0.164,-1.349 -0.129,-1.959c-0.52,-1.089 -2.362,-2.123 -3.036,-1.723c-0.09,0.055 -0.18,0.15 -0.262,0.281c-0.078,0.127 -0.149,0.281 -0.213,0.468c-0.312,0.92 -0.308,2.297 0.018,3.007Z" style="fill:#363639;fill-rule:nonzero;"/><path d="M61.274,21.896c0.071,-0.057 0.109,-0.132 0.111,-0.209c-0.002,-0.077 -0.043,-0.147 -0.118,-0.19c-0.541,-0.333 -12.394,-7.531 -22.373,-4.936c-0.082,0.022 -0.152,0.073 -0.193,0.139c-0.019,0.034 -0.035,0.07 -0.038,0.112c-0.01,0.11 0.071,0.197 0.192,0.205c6.598,0.468 13.029,4.007 14.929,5.136l0.317,0.187l-0.32,0.242c-1.926,1.453 -8.619,6.229 -15.51,7.969c-0.129,0.034 -0.224,0.144 -0.224,0.264c-0.004,0.122 0.088,0.218 0.217,0.226c10.257,0.908 22.478,-8.723 23.01,-9.145Z" style="fill:#363639;fill-rule:nonzero;"/><path d="M19.525,8.11c0.084,-0.063 0.129,-0.171 0.1,-0.258c-1.945,-6.293 -10.264,-7.729 -10.596,-7.782c-0.042,-0.01 -0.093,0.007 -0.139,0.042c-0.048,0.034 -0.083,0.085 -0.099,0.137c-0.124,0.405 -3.02,10.117 0.349,15.16c0.046,0.067 0.141,0.078 0.221,0.02c0.084,-0.055 0.131,-0.162 0.115,-0.249c-0.809,-4.555 0.475,-10.026 0.881,-11.572l0.067,-0.253l0.207,0.05c1.26,0.301 5.756,1.556 8.646,4.71c0.058,0.062 0.16,0.06 0.248,-0.005Z" style="fill:#363639;fill-rule:nonzero;"/><path d="M15.273,44.382c0.053,-0.119 0.03,-0.242 -0.05,-0.306c-0.081,-0.061 -0.197,-0.039 -0.28,0.05c-4.232,4.712 -9.969,7.377 -11.579,8.068l-0.261,0.108l0.014,-0.324c0.08,-1.953 0.527,-8.59 2.878,-14.17c0.043,-0.107 0.022,-0.222 -0.05,-0.267c-0.071,-0.048 -0.175,-0.015 -0.247,0.069c-5.348,6.71 -5.674,18.844 -5.685,19.382c-0.002,0.07 0.02,0.132 0.062,0.173c0.041,0.039 0.101,0.049 0.153,0.03c0.431,-0.157 11.016,-4.066 15.045,-12.813Z" style="fill:#363639;fill-rule:nonzero;"/><path d="M86.601,37.214l3.313,0l0,3.105l0.075,0c1.026,-2.215 3.508,-3.557 6.096,-3.557c4.811,0 6.96,3.145 6.96,8.398l0,11.625l-3.435,0l0,-10.137c0,-4.56 -0.946,-6.775 -3.932,-6.969c-3.9,0 -5.646,3.297 -5.646,8.049l0,9.057l-3.431,0l0,-19.571Z" style="fill:#363639;fill-rule:nonzero;"/><path d="M129.072,47.459c-0.733,0 -1.451,-0.077 -2.189,-0.077c-1.849,0 -6.45,0.307 -6.45,3.76c0,2.075 1.897,3.192 3.466,3.192c3.388,0 5.173,-2.229 5.173,-5.148l0,-1.727ZM118.911,38.603c1.705,-1.085 3.753,-1.841 6.123,-1.841c5.316,0 7.459,2.762 7.459,8.083l0,8.102c0,2.23 0.083,3.261 0.157,3.838l-3.213,0l0,-2.536l-0.063,0c-0.814,1.193 -2.629,2.991 -5.769,2.991c-4.006,0 -6.812,-1.84 -6.812,-6.098c0,-4.915 5.099,-6.447 8.641,-6.447c1.349,0 2.285,0 3.638,0.088c0,-3.381 -1.162,-5.104 -4.584,-5.104c-1.943,0 -4.016,0.76 -5.396,1.992l-0.181,-3.068Z" style="fill:#363639;fill-rule:nonzero;"/><path d="M145.981,40.369c-0.488,-0.117 -0.983,-0.15 -1.415,-0.15c-3.228,0 -5.338,3.069 -5.338,7.985l0,8.581l-3.612,0l0,-19.413l3.385,0l0,3.194l0.07,0c0.963,-2.037 3.037,-3.494 5.105,-3.494c0.789,0 1.293,0.058 1.805,0.152l0,3.145Z" style="fill:#363639;fill-rule:nonzero;"/><path d="M164.007,54.334c4.003,0 5.797,-3.833 5.797,-7.328c0,-3.723 -2.154,-7.327 -5.797,-7.327c-3.685,0 -5.831,3.604 -5.831,7.327c0,3.495 1.778,7.328 5.831,7.328ZM164.007,36.762c5.642,0 9.441,4.294 9.441,10.244c0,5.597 -3.862,10.234 -9.441,10.234c-5.623,0 -9.474,-4.637 -9.474,-10.234c0,-5.95 3.78,-10.244 9.474,-10.244Z" style="fill:#363639;fill-rule:nonzero;"/><path d="M115.413,37.214l-5.018,0l0,-5.677l-3.592,1.151l0,4.507l-2.959,2.953l2.959,0l0,11.418c0,3.914 2.297,5.674 6.021,5.674c1.064,0 2.115,-0.26 2.909,-0.486l0,-3.03c-0.536,0.32 -1.304,0.61 -2.292,0.61c-1.655,0 -3.046,-1.231 -3.046,-3.498l0,-10.704l5.018,0l0,-2.918Z" style="fill:#363639;fill-rule:nonzero;"/><rect x="148.221" y="37.214" width="3.604" height="19.571" style="fill:#363639;fill-rule:nonzero;"/><path d="M150.017,34.605c1.218,0 2.203,-0.983 2.203,-2.209c0,-1.223 -0.985,-2.206 -2.203,-2.206c-1.225,0 -2.214,0.983 -2.214,2.206c0,1.226 0.989,2.209 2.214,2.209Z" style="fill:#363639;fill-rule:nonzero;"/><path d="M71.631,53.87c5.873,0 8.392,-5.144 8.392,-10.48c0,-5.439 -2.771,-10.503 -8.392,-10.468c-5.602,-0.035 -8.373,5.029 -8.373,10.468c0,5.336 2.521,10.48 8.373,10.48ZM71.631,29.554c7.738,0 12.261,5.901 12.261,13.836c0,8.135 -4.49,13.85 -12.261,13.85c-7.76,0 -12.241,-5.715 -12.241,-13.85c0,-7.935 4.523,-13.836 12.241,-13.836Z" style="fill:#363639;fill-rule:nonzero;"/></g></svg>