<?xml version="1.0" encoding="UTF-8" standalone="no"?><!DOCTYPE svg PUBLIC "-//W3C//DTD SVG 1.1//EN" "http://www.w3.org/Graphics/SVG/1.1/DTD/svg11.dtd"><svg width="100%" height="100%" viewBox="0 0 36 40" version="1.1" xmlns="http://www.w3.org/2000/svg" xmlns:xlink="http://www.w3.org/1999/xlink" xml:space="preserve" style="fill-rule:evenodd;clip-rule:evenodd;stroke-linecap:round;stroke-linejoin:round;stroke-miterlimit:10;"><g id="Time"><path d="M23.307,13.079c2.937,1.792 4.897,5.025 4.897,8.717c0,5.635 -4.569,10.204 -10.204,10.204c-5.635,0 -10.204,-4.569 -10.204,-10.204c0,-5.635 4.569,-10.204 10.204,-10.204c0.795,0 1.569,0.091 2.312,0.263c1.073,0.249 2.081,0.667 2.995,1.224" style="fill:none;stroke-width:1.5px;stroke:#000;"/><path d="M16.528,20.324c-0.813,0.813 -0.813,2.132 0,2.945c0.812,0.813 2.132,0.813 2.944,0c0.814,-0.813 0.814,-2.132 0,-2.945c-0.812,-0.813 -2.132,-0.813 -2.944,0" style="fill:none;stroke-width:1.2px;stroke:#000;"/><path d="M20.017,21.275l-2.017,-5.865l-2.019,5.878" style="fill:none;stroke-width:1.2px;stroke:#000;"/><path d="M18.574,23.797l5.866,-2.017l-5.879,-2.019" style="fill:none;stroke-width:1.2px;stroke:#000;"/><path d="M16.675,11.436l0,-1.562c0,-1.035 0.839,-1.874 1.874,-1.874c1.035,0 1.874,0.839 1.874,1.874l0,1.77" style="fill:none;stroke-width:1.5px;stroke:#000;"/><path d="M23.307,13.08l1.133,-1.8l1.229,0.809" style="fill:none;stroke-width:1.5px;stroke:#000;"/><path d="M23.198,10.471l1.23,0.809" style="fill:none;stroke-width:1.5px;stroke:#000;"/></g></svg>