<?xml version="1.0" encoding="UTF-8" standalone="no"?><!DOCTYPE svg PUBLIC "-//W3C//DTD SVG 1.1//EN" "http://www.w3.org/Graphics/SVG/1.1/DTD/svg11.dtd"><svg width="100%" height="100%" viewBox="0 0 39 36" version="1.1" xmlns="http://www.w3.org/2000/svg" xmlns:xlink="http://www.w3.org/1999/xlink" xml:space="preserve" style="fill-rule:evenodd;clip-rule:evenodd;stroke-linecap:round;stroke-linejoin:round;stroke-miterlimit:10;"><g id="Users"><path d="M25.525,16.849c0,2.204 -1.787,3.991 -3.992,3.991l-0.901,0c-2.204,0 -3.991,-1.787 -3.991,-3.991l0,-5.15c0,-2.205 1.787,-3.992 3.991,-3.992l0.901,0c2.205,0 3.992,1.787 3.992,3.992l0,5.15Z" style="fill:none;stroke-width:1.51px;stroke:#000;"/><path d="M31,28.251l-9.916,0l-9.917,0l0,-1.766c-0.059,-1.766 8.094,-3.591 8.094,-3.591l0,-1.957" style="fill:none;stroke-width:1.51px;stroke:#000;"/><path d="M22.906,22.894c0,0 8.153,1.825 8.094,3.591l0,1.766" style="fill:none;stroke-width:1.51px;stroke:#000;"/><path d="M15.296,20.463l-0.721,0c-1.764,0 -3.194,-1.43 -3.194,-3.194l0,-4.122c0,-1.764 1.43,-3.194 3.194,-3.194l0.721,0" style="fill:none;stroke-width:1.29px;stroke:#000;"/><path d="M13.477,20.541l0,1.566c0,0 -6.524,1.46 -6.477,2.874l0,3.313" style="fill:none;stroke-width:1.29px;stroke:#000;"/></g></svg>